<svg width="360" height="96" viewBox="0 0 360 96" fill="none" xmlns="http://www.w3.org/2000/svg">
<g filter="url(#filter0_d)">
<rect width="360" height="92" rx="46" fill="#F52557"/>
</g>
<g filter="url(#filter1_d)">
<path d="M56.5925 33L47.6525 49.62C46.7925 51.22 45.7525 52.43 44.5325 53.25C43.3325 54.07 42.0225 54.48 40.6025 54.48C39.5025 54.48 38.3625 54.24 37.1825 53.76L38.3525 50.07C39.1925 50.33 39.8925 50.46 40.4525 50.46C41.0525 50.46 41.5925 50.32 42.0725 50.04C42.5525 49.74 42.9925 49.28 43.3925 48.66L43.5725 48.42L35.2925 33H40.4825L46.0625 44.28L51.8225 33H56.5925ZM68.1331 45.6C69.0931 45.9 69.8331 46.36 70.3531 46.98C70.8931 47.6 71.1631 48.34 71.1631 49.2C71.1631 50.22 70.8131 51.12 70.1131 51.9C69.4131 52.66 68.4531 53.25 67.2331 53.67C66.0131 54.09 64.6331 54.3 63.0931 54.3C61.8331 54.3 60.5931 54.17 59.3731 53.91C58.1531 53.65 57.0231 53.26 55.9831 52.74L57.2431 49.47C58.9431 50.29 60.8231 50.7 62.8831 50.7C63.9831 50.7 64.8431 50.54 65.4631 50.22C66.1031 49.88 66.4231 49.41 66.4231 48.81C66.4231 48.29 66.2031 47.9 65.7631 47.64C65.3231 47.36 64.6831 47.22 63.8431 47.22H60.5431V44.31H63.4231C64.2431 44.31 64.8731 44.18 65.3131 43.92C65.7531 43.66 65.9731 43.28 65.9731 42.78C65.9731 42.26 65.6931 41.86 65.1331 41.58C64.5931 41.3 63.8131 41.16 62.7931 41.16C61.2331 41.16 59.5331 41.53 57.6931 42.27L56.5531 39.03C58.7931 38.05 60.9731 37.56 63.0931 37.56C64.5531 37.56 65.8531 37.74 66.9931 38.1C68.1531 38.46 69.0631 38.99 69.7231 39.69C70.3831 40.37 70.7131 41.17 70.7131 42.09C70.7131 42.85 70.4831 43.54 70.0231 44.16C69.5631 44.76 68.9331 45.24 68.1331 45.6ZM74.5674 37.86H79.2174V44.16H86.2374V37.86H90.9174V54H86.2374V47.97H79.2174V54H74.5674V37.86ZM101.667 37.62C104.167 37.62 106.087 38.22 107.427 39.42C108.767 40.6 109.437 42.39 109.437 44.79V54H105.057V51.99C104.177 53.49 102.537 54.24 100.137 54.24C98.8975 54.24 97.8175 54.03 96.8975 53.61C95.9975 53.19 95.3075 52.61 94.8275 51.87C94.3475 51.13 94.1075 50.29 94.1075 49.35C94.1075 47.85 94.6675 46.67 95.7875 45.81C96.9275 44.95 98.6775 44.52 101.037 44.52H104.757C104.757 43.5 104.447 42.72 103.827 42.18C103.207 41.62 102.277 41.34 101.037 41.34C100.177 41.34 99.3275 41.48 98.4875 41.76C97.6675 42.02 96.9675 42.38 96.3875 42.84L94.7075 39.57C95.5875 38.95 96.6375 38.47 97.8575 38.13C99.0975 37.79 100.367 37.62 101.667 37.62ZM101.307 51.09C102.107 51.09 102.817 50.91 103.437 50.55C104.057 50.17 104.497 49.62 104.757 48.9V47.25H101.547C99.6275 47.25 98.6675 47.88 98.6675 49.14C98.6675 49.74 98.8975 50.22 99.3575 50.58C99.8375 50.92 100.487 51.09 101.307 51.09ZM127.063 41.7H121.603V54H116.953V41.7H111.493V37.86H127.063V41.7ZM138.288 43.02C140.388 43.04 141.998 43.52 143.118 44.46C144.238 45.38 144.798 46.69 144.798 48.39C144.798 50.17 144.168 51.56 142.908 52.56C141.668 53.54 139.918 54.03 137.658 54.03L129.558 54V37.86H134.208V43.02H138.288ZM137.238 50.7C138.138 50.72 138.828 50.53 139.308 50.13C139.788 49.73 140.028 49.13 140.028 48.33C140.028 47.55 139.788 46.98 139.308 46.62C138.848 46.26 138.158 46.07 137.238 46.05L134.208 46.02V50.7H137.238ZM163.898 54.24C162.178 54.24 160.628 53.89 159.248 53.19C157.888 52.47 156.818 51.48 156.038 50.22C155.278 48.96 154.898 47.53 154.898 45.93C154.898 44.33 155.278 42.9 156.038 41.64C156.818 40.38 157.888 39.4 159.248 38.7C160.628 37.98 162.178 37.62 163.898 37.62C165.598 37.62 167.078 37.98 168.338 38.7C169.618 39.4 170.548 40.41 171.128 41.73L167.498 43.68C166.658 42.2 165.448 41.46 163.868 41.46C162.648 41.46 161.638 41.86 160.838 42.66C160.038 43.46 159.638 44.55 159.638 45.93C159.638 47.31 160.038 48.4 160.838 49.2C161.638 50 162.648 50.4 163.868 50.4C165.468 50.4 166.678 49.66 167.498 48.18L171.128 50.16C170.548 51.44 169.618 52.44 168.338 53.16C167.078 53.88 165.598 54.24 163.898 54.24ZM187.473 41.7H182.013V54H177.363V41.7H171.903V37.86H187.473V41.7ZM196.854 54.24C195.154 54.24 193.624 53.89 192.264 53.19C190.924 52.47 189.874 51.48 189.114 50.22C188.354 48.96 187.974 47.53 187.974 45.93C187.974 44.33 188.354 42.9 189.114 41.64C189.874 40.38 190.924 39.4 192.264 38.7C193.624 37.98 195.154 37.62 196.854 37.62C198.554 37.62 200.074 37.98 201.414 38.7C202.754 39.4 203.804 40.38 204.564 41.64C205.324 42.9 205.704 44.33 205.704 45.93C205.704 47.53 205.324 48.96 204.564 50.22C203.804 51.48 202.754 52.47 201.414 53.19C200.074 53.89 198.554 54.24 196.854 54.24ZM196.854 50.4C198.054 50.4 199.034 50 199.794 49.2C200.574 48.38 200.964 47.29 200.964 45.93C200.964 44.57 200.574 43.49 199.794 42.69C199.034 41.87 198.054 41.46 196.854 41.46C195.654 41.46 194.664 41.87 193.884 42.69C193.104 43.49 192.714 44.57 192.714 45.93C192.714 47.29 193.104 48.38 193.884 49.2C194.664 50 195.654 50.4 196.854 50.4ZM208.923 37.86H213.573V47.46L221.433 37.86H225.723V54H221.073V44.4L213.243 54H208.923V37.86ZM245.972 54V44.34L241.142 52.44H239.162L234.452 44.31V54H230.222V37.86H235.112L240.272 47.19L245.762 37.86H250.142L250.202 54H245.972ZM262.245 54.24C260.545 54.24 259.015 53.89 257.655 53.19C256.315 52.47 255.265 51.48 254.505 50.22C253.745 48.96 253.365 47.53 253.365 45.93C253.365 44.33 253.745 42.9 254.505 41.64C255.265 40.38 256.315 39.4 257.655 38.7C259.015 37.98 260.545 37.62 262.245 37.62C263.945 37.62 265.465 37.98 266.805 38.7C268.145 39.4 269.195 40.38 269.955 41.64C270.715 42.9 271.095 44.33 271.095 45.93C271.095 47.53 270.715 48.96 269.955 50.22C269.195 51.48 268.145 52.47 266.805 53.19C265.465 53.89 263.945 54.24 262.245 54.24ZM262.245 50.4C263.445 50.4 264.425 50 265.185 49.2C265.965 48.38 266.355 47.29 266.355 45.93C266.355 44.57 265.965 43.49 265.185 42.69C264.425 41.87 263.445 41.46 262.245 41.46C261.045 41.46 260.055 41.87 259.275 42.69C258.495 43.49 258.105 44.57 258.105 45.93C258.105 47.29 258.495 48.38 259.275 49.2C260.055 50 261.045 50.4 262.245 50.4ZM281.993 54.24C280.273 54.24 278.723 53.89 277.343 53.19C275.983 52.47 274.913 51.48 274.133 50.22C273.373 48.96 272.993 47.53 272.993 45.93C272.993 44.33 273.373 42.9 274.133 41.64C274.913 40.38 275.983 39.4 277.343 38.7C278.723 37.98 280.273 37.62 281.993 37.62C283.693 37.62 285.173 37.98 286.433 38.7C287.713 39.4 288.643 40.41 289.223 41.73L285.593 43.68C284.753 42.2 283.543 41.46 281.963 41.46C280.743 41.46 279.733 41.86 278.933 42.66C278.133 43.46 277.733 44.55 277.733 45.93C277.733 47.31 278.133 48.4 278.933 49.2C279.733 50 280.743 50.4 281.963 50.4C283.563 50.4 284.773 49.66 285.593 48.18L289.223 50.16C288.643 51.44 287.713 52.44 286.433 53.16C285.173 53.88 283.693 54.24 281.993 54.24ZM305.569 41.7H300.109V54H295.459V41.7H289.999V37.86H305.569V41.7ZM316.793 43.02C318.893 43.04 320.503 43.52 321.623 44.46C322.743 45.38 323.303 46.69 323.303 48.39C323.303 50.17 322.673 51.56 321.413 52.56C320.173 53.54 318.423 54.03 316.163 54.03L308.063 54V37.86H312.713V43.02H316.793ZM315.743 50.7C316.643 50.72 317.333 50.53 317.813 50.13C318.293 49.73 318.533 49.13 318.533 48.33C318.533 47.55 318.293 46.98 317.813 46.62C317.353 46.26 316.663 46.07 315.743 46.05L312.713 46.02V50.7H315.743Z" fill="white"/>
</g>
<defs>
<filter id="filter0_d" x="0" y="0" width="360" height="96" filterUnits="userSpaceOnUse" color-interpolation-filters="sRGB">
<feFlood flood-opacity="0" result="BackgroundImageFix"/>
<feColorMatrix in="SourceAlpha" type="matrix" values="0 0 0 0 0 0 0 0 0 0 0 0 0 0 0 0 0 0 127 0"/>
<feOffset dy="4"/>
<feColorMatrix type="matrix" values="0 0 0 0 0.766667 0 0 0 0 0.424861 0 0 0 0 0.424861 0 0 0 0.25 0"/>
<feBlend mode="normal" in2="BackgroundImageFix" result="effect1_dropShadow"/>
<feBlend mode="normal" in="SourceGraphic" in2="effect1_dropShadow" result="shape"/>
</filter>
<filter id="filter1_d" x="31.2925" y="33" width="296.011" height="29.48" filterUnits="userSpaceOnUse" color-interpolation-filters="sRGB">
<feFlood flood-opacity="0" result="BackgroundImageFix"/>
<feColorMatrix in="SourceAlpha" type="matrix" values="0 0 0 0 0 0 0 0 0 0 0 0 0 0 0 0 0 0 127 0"/>
<feOffset dy="4"/>
<feGaussianBlur stdDeviation="2"/>
<feColorMatrix type="matrix" values="0 0 0 0 0 0 0 0 0 0 0 0 0 0 0 0 0 0 0.25 0"/>
<feBlend mode="normal" in2="BackgroundImageFix" result="effect1_dropShadow"/>
<feBlend mode="normal" in="SourceGraphic" in2="effect1_dropShadow" result="shape"/>
</filter>
</defs>
</svg>
